<?xml version="1.0" encoding="UTF-8"?>
<svg id="Layer_1" data-name="Layer 1" xmlns="http://www.w3.org/2000/svg" viewBox="0 0 800 800">
  <defs>
    <style>
      .cls-1 {
        fill: #0aaab8;
        stroke-width: 0px;
      }
    </style>
  </defs>
  <path class="cls-1" d="m131.43,98.05v603.91h404.78v-52.75s-.48-7.74-8.23-7.74H205.47s-12.34-.12-12.34-8.83V174.99s-1.09-13.07,13.79-13.07h386.15s11.61-.97,11.61,14.52v181.1s1.45,11.98-9.07,11.98h-259.13s-11.25.73-11.25-10.16v-53.35s-.73-10.89,11.25-10.89h190.9s6.53-1.09,6.53-8.35v-43.19s0-7.26-7.26-7.26h-251.87s-9.44-1.45-9.44,9.44v309.58s-1.45,11.98,10.16,11.98h251.14s6.53,0,6.53-10.16v-41.01s-1.09-7.98-9.07-7.98h-189.08s-10.52-.73-10.52-10.89v-53.35s-1.45-13.43,12.34-13.43h258.4s13.07,0,13.07,13.07v258.4h60.25V98.05H131.43Z"/>
</svg>